# xmcd
#
# Track frame offsets:
#	150
#	14480
#	26872
#	37755
#	50697
#	62997
#	75915
#	89657
#	102557
#	114757
#	127005
#	139840
#	152970
#	163620
#
# Disc length: 2323 seconds
# Revision: 3
# Processed by: cddbd v1.5.2PL0 Copyright (c) Steve Scherf et al.
# Submitted via: dBpowerAMP V12.0
#
DISCID=bb09110e
DTITLE=Willie Mabon - The Seventh Son
DYEAR=1996
DGENRE=Blues
TTITLE0=I Don't Know
TTITLE1=Beggar or Bandit
TTITLE2=You're a Fool
TTITLE3=Monday Woman
TTITLE4=I'm Tired
TTITLE5=Lonely Blues
TTITLE6=Willie's Blues
TTITLE7=Poison Ivy
TTITLE8=He Lied
TTITLE9=Someday You Gotta Pay
TTITLE10=The Seventh Son
TTITLE11=Knock on Wood
TTITLE12=Why Did It Happen to Me
TTITLE13=I'm Mad at You
EXTD=
EXTT0=
EXTT1=
EXTT2=
EXTT3=
EXTT4=
EXTT5=
EXTT6=
EXTT7=
EXTT8=
EXTT9=
EXTT10=
EXTT11=
EXTT12=
EXTT13=
PLAYORDER=
